<svg width="66" height="22" viewBox="0 0 66 22" fill="none" xmlns="http://www.w3.org/2000/svg">
<path d="M2.23085 5.148H4.60685L10.4749 14.616H10.5109V5.148H12.6529V18H10.2769L4.42685 8.55H4.37285V18H2.23085V5.148ZM21.7731 12.528C21.7491 12.204 21.6771 11.892 21.5571 11.592C21.4491 11.292 21.2931 11.034 21.0891 10.818C20.8971 10.59 20.6571 10.41 20.3691 10.278C20.0931 10.134 19.7811 10.062 19.4331 10.062C19.0731 10.062 18.7431 10.128 18.4431 10.26C18.1551 10.38 17.9031 10.554 17.6871 10.782C17.4831 10.998 17.3151 11.256 17.1831 11.556C17.0631 11.856 16.9971 12.18 16.9851 12.528H21.7731ZM16.9851 13.878C16.9851 14.238 17.0331 14.586 17.1291 14.922C17.2371 15.258 17.3931 15.552 17.5971 15.804C17.8011 16.056 18.0591 16.26 18.3711 16.416C18.6831 16.56 19.0551 16.632 19.4871 16.632C20.0871 16.632 20.5671 16.506 20.9271 16.254C21.2991 15.99 21.5751 15.6 21.7551 15.084H23.6991C23.5911 15.588 23.4051 16.038 23.1411 16.434C22.8771 16.83 22.5591 17.166 22.1871 17.442C21.8151 17.706 21.3951 17.904 20.9271 18.036C20.4711 18.18 19.9911 18.252 19.4871 18.252C18.7551 18.252 18.1071 18.132 17.5431 17.892C16.9791 17.652 16.4991 17.316 16.1031 16.884C15.7191 16.452 15.4251 15.936 15.2211 15.336C15.0291 14.736 14.9331 14.076 14.9331 13.356C14.9331 12.696 15.0351 12.072 15.2391 11.484C15.4551 10.884 15.7551 10.362 16.1391 9.918C16.5351 9.462 17.0091 9.102 17.5611 8.838C18.1131 8.574 18.7371 8.442 19.4331 8.442C20.1651 8.442 20.8191 8.598 21.3951 8.91C21.9831 9.21 22.4691 9.612 22.8531 10.116C23.2371 10.62 23.5131 11.202 23.6811 11.862C23.8611 12.51 23.9091 13.182 23.8251 13.878H16.9851ZM28.247 13.104L25.025 8.694H27.509L29.453 11.556L31.487 8.694H33.863L30.695 12.996L34.259 18H31.793L29.435 14.562L27.149 18H24.737L28.247 13.104ZM34.837 8.694H36.385V5.904H38.437V8.694H40.291V10.224H38.437V15.192C38.437 15.408 38.443 15.594 38.455 15.75C38.479 15.906 38.521 16.038 38.581 16.146C38.653 16.254 38.755 16.338 38.887 16.398C39.019 16.446 39.199 16.47 39.427 16.47C39.571 16.47 39.715 16.47 39.859 16.47C40.003 16.458 40.147 16.434 40.291 16.398V17.982C40.063 18.006 39.841 18.03 39.625 18.054C39.409 18.078 39.187 18.09 38.959 18.09C38.419 18.09 37.981 18.042 37.645 17.946C37.321 17.838 37.063 17.688 36.871 17.496C36.691 17.292 36.565 17.04 36.493 16.74C36.433 16.44 36.397 16.098 36.385 15.714V10.224H34.837V8.694Z" fill="white"/>
<path d="M59.793 5.79913C59.9805 5.61166 60.2348 5.50635 60.5 5.50635C60.7652 5.50635 61.0195 5.61166 61.207 5.79913L65.707 10.2991C65.8945 10.4867 65.9998 10.741 65.9998 11.0061C65.9998 11.2713 65.8945 11.5256 65.707 11.7131L61.207 16.2131C61.0184 16.3953 60.7658 16.4961 60.5036 16.4938C60.2414 16.4915 59.9906 16.3864 59.8052 16.201C59.6198 16.0155 59.5146 15.7647 59.5123 15.5025C59.51 15.2403 59.6108 14.9877 59.793 14.7991L62.5 12.0061H53C52.7348 12.0061 52.4804 11.9008 52.2929 11.7132C52.1054 11.5257 52 11.2714 52 11.0061C52 10.7409 52.1054 10.4866 52.2929 10.299C52.4804 10.1115 52.7348 10.0061 53 10.0061H62.5L59.793 7.21313C59.6055 7.02561 59.5002 6.7713 59.5002 6.50613C59.5002 6.24097 59.6055 5.98666 59.793 5.79913Z" fill="white"/>
</svg>
