<svg width="72" height="22" viewBox="0 0 72 22" fill="none" xmlns="http://www.w3.org/2000/svg">
<path d="M7.207 16.2072C7.01947 16.3947 6.76516 16.5 6.5 16.5C6.23484 16.5 5.98053 16.3947 5.793 16.2072L1.293 11.7072C1.10553 11.5197 1.00021 11.2654 1.00021 11.0002C1.00021 10.735 1.10553 10.4807 1.293 10.2932L5.793 5.79321C5.9816 5.61106 6.2342 5.51026 6.4964 5.51254C6.7586 5.51482 7.00941 5.61999 7.19482 5.8054C7.38023 5.9908 7.4854 6.24162 7.48767 6.50381C7.48995 6.76601 7.38916 7.01861 7.207 7.20721L4.5 10.0002H14C14.2652 10.0002 14.5196 10.1056 14.7071 10.2931C14.8946 10.4806 15 10.735 15 11.0002C15 11.2654 14.8946 11.5198 14.7071 11.7073C14.5196 11.8949 14.2652 12.0002 14 12.0002H4.5L7.207 14.7932C7.39447 14.9807 7.49979 15.235 7.49979 15.5002C7.49979 15.7654 7.39447 16.0197 7.207 16.2072Z" fill="#0A007B"/>
<path d="M30.2251 10.53H33.8971C34.4371 10.53 34.8871 10.38 35.2471 10.08C35.6071 9.768 35.7872 9.324 35.7872 8.748C35.7872 8.1 35.6251 7.644 35.3011 7.38C34.9771 7.116 34.5091 6.984 33.8971 6.984H30.2251V10.53ZM27.9751 5.148H34.2211C35.3731 5.148 36.2971 5.412 36.9931 5.94C37.6891 6.468 38.0372 7.266 38.0372 8.334C38.0372 8.982 37.8751 9.54 37.5511 10.008C37.2391 10.464 36.7891 10.818 36.2012 11.07V11.106C36.9931 11.274 37.5931 11.652 38.0011 12.24C38.4091 12.816 38.6132 13.542 38.6132 14.418C38.6132 14.922 38.5231 15.396 38.3431 15.84C38.1631 16.272 37.8811 16.65 37.4971 16.974C37.1131 17.286 36.6211 17.538 36.0211 17.73C35.4211 17.91 34.7071 18 33.8791 18H27.9751V5.148ZM30.2251 16.164H34.2031C34.8871 16.164 35.4151 15.99 35.7872 15.642C36.1712 15.282 36.3632 14.778 36.3632 14.13C36.3632 13.494 36.1712 13.008 35.7872 12.672C35.4151 12.324 34.8871 12.15 34.2031 12.15H30.2251V16.164ZM48.515 15.93C48.515 16.182 48.545 16.362 48.605 16.47C48.677 16.578 48.809 16.632 49.001 16.632C49.061 16.632 49.133 16.632 49.217 16.632C49.301 16.632 49.397 16.62 49.505 16.596V18.018C49.433 18.042 49.337 18.066 49.217 18.09C49.109 18.126 48.995 18.156 48.875 18.18C48.755 18.204 48.635 18.222 48.515 18.234C48.395 18.246 48.293 18.252 48.209 18.252C47.789 18.252 47.441 18.168 47.165 18C46.889 17.832 46.709 17.538 46.625 17.118C46.217 17.514 45.713 17.802 45.113 17.982C44.525 18.162 43.955 18.252 43.403 18.252C42.983 18.252 42.581 18.192 42.197 18.072C41.813 17.964 41.471 17.802 41.171 17.586C40.883 17.358 40.649 17.076 40.469 16.74C40.301 16.392 40.217 15.99 40.217 15.534C40.217 14.958 40.319 14.49 40.523 14.13C40.739 13.77 41.015 13.488 41.351 13.284C41.699 13.08 42.083 12.936 42.503 12.852C42.935 12.756 43.367 12.684 43.799 12.636C44.171 12.564 44.525 12.516 44.861 12.492C45.197 12.456 45.491 12.402 45.743 12.33C46.007 12.258 46.211 12.15 46.355 12.006C46.511 11.85 46.589 11.622 46.589 11.322C46.589 11.058 46.523 10.842 46.391 10.674C46.271 10.506 46.115 10.38 45.923 10.296C45.743 10.2 45.539 10.14 45.311 10.116C45.083 10.08 44.867 10.062 44.663 10.062C44.087 10.062 43.613 10.182 43.241 10.422C42.869 10.662 42.659 11.034 42.611 11.538H40.559C40.595 10.938 40.739 10.44 40.991 10.044C41.243 9.648 41.561 9.33 41.945 9.09C42.341 8.85 42.785 8.682 43.277 8.586C43.769 8.49 44.273 8.442 44.789 8.442C45.245 8.442 45.695 8.49 46.139 8.586C46.583 8.682 46.979 8.838 47.327 9.054C47.687 9.27 47.975 9.552 48.191 9.9C48.407 10.236 48.515 10.65 48.515 11.142V15.93ZM46.463 13.338C46.151 13.542 45.767 13.668 45.311 13.716C44.855 13.752 44.399 13.812 43.943 13.896C43.727 13.932 43.517 13.986 43.313 14.058C43.109 14.118 42.929 14.208 42.773 14.328C42.617 14.436 42.491 14.586 42.395 14.778C42.311 14.958 42.269 15.18 42.269 15.444C42.269 15.672 42.335 15.864 42.467 16.02C42.599 16.176 42.755 16.302 42.935 16.398C43.127 16.482 43.331 16.542 43.547 16.578C43.775 16.614 43.979 16.632 44.159 16.632C44.387 16.632 44.633 16.602 44.897 16.542C45.161 16.482 45.407 16.38 45.635 16.236C45.875 16.092 46.073 15.912 46.229 15.696C46.385 15.468 46.463 15.192 46.463 14.868V13.338ZM57.3649 11.808C57.2809 11.232 57.0469 10.8 56.6629 10.512C56.2909 10.212 55.8169 10.062 55.2409 10.062C54.9769 10.062 54.6949 10.11 54.3949 10.206C54.0949 10.29 53.8189 10.458 53.5669 10.71C53.3149 10.95 53.1049 11.292 52.9369 11.736C52.7689 12.168 52.6849 12.738 52.6849 13.446C52.6849 13.83 52.7269 14.214 52.8109 14.598C52.9069 14.982 53.0509 15.324 53.2429 15.624C53.4469 15.924 53.7049 16.17 54.0169 16.362C54.3289 16.542 54.7069 16.632 55.1509 16.632C55.7509 16.632 56.2429 16.446 56.6269 16.074C57.0229 15.702 57.2689 15.18 57.3649 14.508H59.4169C59.2249 15.72 58.7629 16.65 58.0309 17.298C57.3109 17.934 56.3509 18.252 55.1509 18.252C54.4189 18.252 53.7709 18.132 53.2069 17.892C52.6549 17.64 52.1869 17.304 51.8029 16.884C51.4189 16.452 51.1249 15.942 50.9209 15.354C50.7289 14.766 50.6329 14.13 50.6329 13.446C50.6329 12.75 50.7289 12.096 50.9209 11.484C51.1129 10.872 51.4009 10.344 51.7849 9.9C52.1689 9.444 52.6429 9.09 53.2069 8.838C53.7829 8.574 54.4549 8.442 55.2229 8.442C55.7629 8.442 56.2729 8.514 56.7529 8.658C57.2449 8.79 57.6769 8.994 58.0489 9.27C58.4329 9.546 58.7449 9.894 58.9849 10.314C59.2249 10.734 59.3689 11.232 59.4169 11.808H57.3649ZM61.4989 5.148H63.5509V12.456L67.2589 8.694H69.7789L66.2149 12.114L70.1209 18H67.6189L64.7749 13.482L63.5509 14.67V18H61.4989V5.148Z" fill="#0A007B"/>
</svg>
