<svg width="1026" height="244" viewBox="0 0 1026 244" fill="none" xmlns="http://www.w3.org/2000/svg">
<path d="M235.6 150.4C235.6 155.867 236.533 160.533 238.4 164.4C240.267 168.267 242.867 171.467 246.2 174C249.533 176.4 253.333 178.2 257.6 179.4C262 180.467 266.733 181 271.8 181C277.267 181 281.933 180.4 285.8 179.2C289.667 177.867 292.8 176.2 295.2 174.2C297.6 172.2 299.333 169.933 300.4 167.4C301.467 164.733 302 162.067 302 159.4C302 153.933 300.733 149.933 298.2 147.4C295.8 144.733 293.133 142.867 290.2 141.8C285.133 139.933 279.2 138.2 272.4 136.6C265.733 134.867 257.467 132.667 247.6 130C241.467 128.4 236.333 126.333 232.2 123.8C228.2 121.133 225 118.2 222.6 115C220.2 111.8 218.467 108.4 217.4 104.8C216.467 101.2 216 97.5333 216 93.8C216 86.6 217.467 80.4 220.4 75.2C223.467 69.8667 227.467 65.4667 232.4 62C237.333 58.5333 242.933 56 249.2 54.4C255.467 52.6667 261.8 51.8 268.2 51.8C275.667 51.8 282.667 52.8 289.2 54.8C295.867 56.6667 301.667 59.5333 306.6 63.4C311.667 67.2667 315.667 72.0667 318.6 77.8C321.533 83.4 323 89.9333 323 97.4H298C297.333 88.2 294.2 81.7333 288.6 78C283 74.1333 275.867 72.2 267.2 72.2C264.267 72.2 261.267 72.5333 258.2 73.2C255.133 73.7333 252.333 74.7333 249.8 76.2C247.267 77.5333 245.133 79.4 243.4 81.8C241.8 84.2 241 87.2 241 90.8C241 95.8667 242.533 99.8667 245.6 102.8C248.8 105.6 252.933 107.733 258 109.2C258.533 109.333 260.6 109.933 264.2 111C267.933 111.933 272.067 113 276.6 114.2C281.133 115.4 285.533 116.6 289.8 117.8C294.2 118.867 297.333 119.667 299.2 120.2C303.867 121.667 307.933 123.667 311.4 126.2C314.867 128.733 317.733 131.667 320 135C322.4 138.2 324.133 141.667 325.2 145.4C326.4 149.133 327 152.867 327 156.6C327 164.6 325.333 171.467 322 177.2C318.8 182.8 314.533 187.4 309.2 191C303.867 194.6 297.8 197.2 291 198.8C284.2 200.533 277.267 201.4 270.2 201.4C262.067 201.4 254.4 200.4 247.2 198.4C240 196.4 233.733 193.333 228.4 189.2C223.067 185.067 218.8 179.8 215.6 173.4C212.4 166.867 210.733 159.2 210.6 150.4H235.6ZM424.288 175C424.288 177.8 424.621 179.8 425.288 181C426.088 182.2 427.554 182.8 429.688 182.8C430.354 182.8 431.154 182.8 432.088 182.8C433.021 182.8 434.088 182.667 435.288 182.4V198.2C434.488 198.467 433.421 198.733 432.088 199C430.888 199.4 429.621 199.733 428.288 200C426.954 200.267 425.621 200.467 424.288 200.6C422.954 200.733 421.821 200.8 420.888 200.8C416.221 200.8 412.354 199.867 409.288 198C406.221 196.133 404.221 192.867 403.288 188.2C398.754 192.6 393.154 195.8 386.488 197.8C379.954 199.8 373.621 200.8 367.488 200.8C362.821 200.8 358.354 200.133 354.088 198.8C349.821 197.6 346.021 195.8 342.688 193.4C339.488 190.867 336.888 187.733 334.888 184C333.021 180.133 332.088 175.667 332.088 170.6C332.088 164.2 333.221 159 335.488 155C337.888 151 340.954 147.867 344.688 145.6C348.554 143.333 352.821 141.733 357.488 140.8C362.288 139.733 367.088 138.933 371.888 138.4C376.021 137.6 379.954 137.067 383.688 136.8C387.421 136.4 390.688 135.8 393.488 135C396.421 134.2 398.688 133 400.288 131.4C402.021 129.667 402.888 127.133 402.888 123.8C402.888 120.867 402.154 118.467 400.688 116.6C399.354 114.733 397.621 113.333 395.488 112.4C393.488 111.333 391.221 110.667 388.688 110.4C386.154 110 383.754 109.8 381.488 109.8C375.088 109.8 369.821 111.133 365.688 113.8C361.554 116.467 359.221 120.6 358.688 126.2H335.888C336.288 119.533 337.888 114 340.688 109.6C343.488 105.2 347.021 101.667 351.288 99C355.688 96.3333 360.621 94.4667 366.088 93.4C371.554 92.3333 377.154 91.8 382.888 91.8C387.954 91.8 392.954 92.3333 397.888 93.4C402.821 94.4667 407.221 96.2 411.088 98.6C415.088 101 418.288 104.133 420.688 108C423.088 111.733 424.288 116.333 424.288 121.8V175ZM401.488 146.2C398.021 148.467 393.754 149.867 388.688 150.4C383.621 150.8 378.554 151.467 373.488 152.4C371.088 152.8 368.754 153.4 366.488 154.2C364.221 154.867 362.221 155.867 360.488 157.2C358.754 158.4 357.354 160.067 356.288 162.2C355.354 164.2 354.888 166.667 354.888 169.6C354.888 172.133 355.621 174.267 357.088 176C358.554 177.733 360.288 179.133 362.288 180.2C364.421 181.133 366.688 181.8 369.088 182.2C371.621 182.6 373.888 182.8 375.888 182.8C378.421 182.8 381.154 182.467 384.088 181.8C387.021 181.133 389.754 180 392.288 178.4C394.954 176.8 397.154 174.8 398.888 172.4C400.621 169.867 401.488 166.8 401.488 163.2V146.2ZM430.62 94.6H447.62V86C447.62 79.4667 448.42 74.2 450.02 70.2C451.62 66.0667 453.754 62.9333 456.42 60.8C459.087 58.5333 462.087 57.0667 465.42 56.4C468.887 55.6 472.487 55.2 476.22 55.2C483.554 55.2 488.887 55.6667 492.22 56.6V74.4C490.754 74 489.154 73.7333 487.42 73.6C485.82 73.3333 483.887 73.2 481.62 73.2C478.554 73.2 475.887 73.9333 473.62 75.4C471.487 76.8667 470.42 79.7333 470.42 84V94.6H489.82V111.6H470.42V198H447.62V111.6H430.62V94.6ZM566.906 137.2C566.64 133.6 565.84 130.133 564.506 126.8C563.306 123.467 561.573 120.6 559.306 118.2C557.173 115.667 554.506 113.667 551.306 112.2C548.24 110.6 544.773 109.8 540.906 109.8C536.906 109.8 533.24 110.533 529.906 112C526.706 113.333 523.906 115.267 521.506 117.8C519.24 120.2 517.373 123.067 515.906 126.4C514.573 129.733 513.84 133.333 513.706 137.2H566.906ZM513.706 152.2C513.706 156.2 514.24 160.067 515.306 163.8C516.506 167.533 518.24 170.8 520.506 173.6C522.773 176.4 525.64 178.667 529.106 180.4C532.573 182 536.706 182.8 541.506 182.8C548.173 182.8 553.506 181.4 557.506 178.6C561.64 175.667 564.706 171.333 566.706 165.6H588.306C587.106 171.2 585.04 176.2 582.106 180.6C579.173 185 575.64 188.733 571.506 191.8C567.373 194.733 562.706 196.933 557.506 198.4C552.44 200 547.106 200.8 541.506 200.8C533.373 200.8 526.173 199.467 519.906 196.8C513.64 194.133 508.306 190.4 503.906 185.6C499.64 180.8 496.373 175.067 494.106 168.4C491.973 161.733 490.906 154.4 490.906 146.4C490.906 139.067 492.04 132.133 494.306 125.6C496.706 118.933 500.04 113.133 504.306 108.2C508.706 103.133 513.973 99.1333 520.106 96.2C526.24 93.2667 533.173 91.8 540.906 91.8C549.04 91.8 556.306 93.5333 562.706 97C569.24 100.333 574.64 104.8 578.906 110.4C583.173 116 586.24 122.467 588.106 129.8C590.106 137 590.64 144.467 589.706 152.2H513.706ZM627.239 115H668.039C674.039 115 679.039 113.333 683.039 110C687.039 106.533 689.039 101.6 689.039 95.2C689.039 88 687.239 82.9333 683.639 80C680.039 77.0667 674.839 75.6 668.039 75.6H627.239V115ZM602.239 55.2H671.639C684.439 55.2 694.706 58.1333 702.439 64C710.172 69.8667 714.039 78.7333 714.039 90.6C714.039 97.8 712.239 104 708.639 109.2C705.172 114.267 700.172 118.2 693.639 121V121.4C702.439 123.267 709.106 127.467 713.639 134C718.172 140.4 720.439 148.467 720.439 158.2C720.439 163.8 719.439 169.067 717.439 174C715.439 178.8 712.306 183 708.039 186.6C703.772 190.067 698.306 192.867 691.639 195C684.972 197 677.039 198 667.839 198H602.239V55.2ZM627.239 177.6H671.439C679.039 177.6 684.906 175.667 689.039 171.8C693.306 167.8 695.439 162.2 695.439 155C695.439 147.933 693.306 142.533 689.039 138.8C684.906 134.933 679.039 133 671.439 133H627.239V177.6ZM732.459 55.2H755.259V76.8H732.459V55.2ZM732.459 94.6H755.259V198H732.459V94.6ZM761.702 94.6H778.902V63.6H801.702V94.6H822.302V111.6H801.702V166.8C801.702 169.2 801.768 171.267 801.902 173C802.168 174.733 802.635 176.2 803.302 177.4C804.102 178.6 805.235 179.533 806.702 180.2C808.168 180.733 810.168 181 812.702 181C814.302 181 815.902 181 817.502 181C819.102 180.867 820.702 180.6 822.302 180.2V197.8C819.768 198.067 817.302 198.333 814.902 198.6C812.502 198.867 810.035 199 807.502 199C801.502 199 796.635 198.467 792.902 197.4C789.302 196.2 786.435 194.533 784.302 192.4C782.302 190.133 780.902 187.333 780.102 184C779.435 180.667 779.035 176.867 778.902 172.6V111.6H761.702V94.6ZM901.703 137.2C901.436 133.6 900.636 130.133 899.303 126.8C898.103 123.467 896.37 120.6 894.103 118.2C891.97 115.667 889.303 113.667 886.103 112.2C883.036 110.6 879.57 109.8 875.703 109.8C871.703 109.8 868.036 110.533 864.703 112C861.503 113.333 858.703 115.267 856.303 117.8C854.036 120.2 852.17 123.067 850.703 126.4C849.37 129.733 848.636 133.333 848.503 137.2H901.703ZM848.503 152.2C848.503 156.2 849.036 160.067 850.103 163.8C851.303 167.533 853.036 170.8 855.303 173.6C857.57 176.4 860.436 178.667 863.903 180.4C867.37 182 871.503 182.8 876.303 182.8C882.97 182.8 888.303 181.4 892.303 178.6C896.436 175.667 899.503 171.333 901.503 165.6H923.103C921.903 171.2 919.836 176.2 916.903 180.6C913.97 185 910.436 188.733 906.303 191.8C902.17 194.733 897.503 196.933 892.303 198.4C887.236 200 881.903 200.8 876.303 200.8C868.17 200.8 860.97 199.467 854.703 196.8C848.436 194.133 843.103 190.4 838.703 185.6C834.436 180.8 831.17 175.067 828.903 168.4C826.77 161.733 825.703 154.4 825.703 146.4C825.703 139.067 826.836 132.133 829.103 125.6C831.503 118.933 834.836 113.133 839.103 108.2C843.503 103.133 848.77 99.1333 854.903 96.2C861.036 93.2667 867.97 91.8 875.703 91.8C883.836 91.8 891.103 93.5333 897.503 97C904.036 100.333 909.436 104.8 913.703 110.4C917.97 116 921.036 122.467 922.903 129.8C924.903 137 925.436 144.467 924.503 152.2H848.503ZM951.036 164.8C951.703 171.467 954.236 176.133 958.636 178.8C963.036 181.467 968.303 182.8 974.436 182.8C976.569 182.8 978.969 182.667 981.636 182.4C984.436 182 987.036 181.333 989.436 180.4C991.836 179.467 993.769 178.133 995.236 176.4C996.836 174.533 997.569 172.133 997.436 169.2C997.303 166.267 996.236 163.867 994.236 162C992.236 160.133 989.636 158.667 986.436 157.6C983.369 156.4 979.836 155.4 975.836 154.6C971.836 153.8 967.769 152.933 963.636 152C959.369 151.067 955.236 149.933 951.236 148.6C947.369 147.267 943.836 145.467 940.636 143.2C937.569 140.933 935.103 138.067 933.236 134.6C931.369 131 930.436 126.6 930.436 121.4C930.436 115.8 931.769 111.133 934.436 107.4C937.236 103.533 940.703 100.467 944.836 98.2C949.103 95.8 953.769 94.1333 958.836 93.2C964.036 92.2667 968.969 91.8 973.636 91.8C978.969 91.8 984.036 92.4 988.836 93.6C993.769 94.6667 998.169 96.4667 1002.04 99C1006.04 101.533 1009.3 104.867 1011.84 109C1014.5 113 1016.17 117.867 1016.84 123.6H993.036C991.969 118.133 989.436 114.467 985.436 112.6C981.569 110.733 977.103 109.8 972.036 109.8C970.436 109.8 968.503 109.933 966.236 110.2C964.103 110.467 962.036 111 960.036 111.8C958.169 112.467 956.569 113.533 955.236 115C953.903 116.333 953.236 118.133 953.236 120.4C953.236 123.2 954.169 125.467 956.036 127.2C958.036 128.933 960.569 130.4 963.636 131.6C966.836 132.667 970.436 133.6 974.436 134.4C978.436 135.2 982.569 136.067 986.836 137C990.969 137.933 995.036 139.067 999.036 140.4C1003.04 141.733 1006.57 143.533 1009.64 145.8C1012.84 148.067 1015.37 150.933 1017.24 154.4C1019.24 157.867 1020.24 162.133 1020.24 167.2C1020.24 173.333 1018.84 178.533 1016.04 182.8C1013.24 187.067 1009.57 190.533 1005.04 193.2C1000.64 195.867 995.703 197.8 990.236 199C984.769 200.2 979.369 200.8 974.036 200.8C967.503 200.8 961.436 200.067 955.836 198.6C950.369 197.133 945.569 194.933 941.436 192C937.436 188.933 934.236 185.2 931.836 180.8C929.569 176.267 928.369 170.933 928.236 164.8H951.036Z" fill="#0A007B"/>
<circle cx="80" cy="120" r="80" fill="#0A007B"/>
<path d="M32.6611 65.5999C30.5416 69.3873 30.0191 74.0397 30.838 79.4124C31.8143 85.8194 34.7688 93.0397 39.039 99.8378C47.5797 113.434 61.3661 125.188 73.631 126.97L74.4883 127.098L75.0404 127.872L120.172 191.701C124.671 192.961 127.575 192.177 129.085 190.424C130.607 188.658 131.309 185.248 130.182 179.837L32.6616 65.5996L32.6611 65.5999ZM119.846 66.2295L94.6247 95.7783C91.8353 99.0458 91.8111 102.641 93.2514 106.57L93.8472 108.196L92.7575 109.421L84.2876 118.885L91.1668 126.944L99.2083 116.995L100.254 115.701L101.642 116.408C105.167 118.187 108.51 118.114 111.1 115.08L136.321 85.5313L133.045 81.6929L116.642 100.902L113.577 97.302L129.972 78.094L126.478 73.9994L110.083 93.208L107.01 89.6082L123.405 70.4001L119.846 66.2295ZM72.4176 132.153L29.3194 180.331C28.2559 185.492 28.9372 188.716 30.3729 190.382C31.809 192.048 34.5868 192.813 38.9374 191.582L79.2029 141.753L72.4176 132.153Z" fill="white"/>
</svg>
