<svg width="17" height="18" viewBox="0 0 17 18" fill="none" xmlns="http://www.w3.org/2000/svg">
<path d="M5.93705 10.412L5.93706 10.4125C5.9399 10.6141 5.80348 10.7912 5.60856 10.837C2.49486 11.5791 1.57086 14.5124 1.34821 15.5222C3.55968 16.3279 5.29186 16.3547 6.51374 15.6327C7.97733 14.7658 8.22305 13.0739 8.22941 13.0291C8.25258 12.8411 8.39807 12.69 8.58658 12.6613C10.0598 12.4271 10.7991 11.5844 11.1732 10.7843C11.5479 9.98281 11.5558 9.22313 11.5558 9.16018C11.5558 9.16 11.5558 9.15983 11.5558 9.15966H11.6308C11.6285 8.99734 11.7391 8.85619 11.8945 8.81619L5.93705 10.412ZM5.93705 10.412C5.936 10.3618 5.93377 9.67805 6.30427 8.91116C6.67324 8.14744 7.41351 7.29713 8.90663 6.90797L8.90689 6.9079L5.93705 10.412ZM14.7466 3.09648L14.746 3.09641C12.7042 2.83877 11.2079 3.15321 10.2734 4.0089C9.20203 4.99148 9.22512 6.40831 9.22639 6.47544C9.2264 6.47569 9.22639 6.47592 9.2264 6.47613C9.22641 6.47703 9.22643 6.47759 9.22643 6.47781H9.15143L14.7466 3.09648ZM14.7466 3.09648C14.8424 3.10775 14.9395 3.08815 15.0229 3.03655M14.7466 3.09648L15.0229 3.03655M15.0229 3.03655C15.0885 2.99638 15.4063 2.79812 15.7217 2.49569L15.0229 3.03655ZM0.696149 16.1973L0.69704 16.1976C2.08018 16.7386 3.32349 17.012 4.41635 17.012C5.37886 17.012 6.22369 16.8001 6.9434 16.3734C8.37659 15.5254 8.86196 14.085 9.01124 13.4552C11.7751 12.8542 12.289 10.3843 12.3833 9.49226C14.1076 8.96608 14.9706 7.94976 15.3912 6.96241C15.8032 5.99527 15.7888 5.06128 15.7557 4.65357C17.0717 3.09576 16.418 1.26465 16.3744 1.14233C16.3738 1.1408 16.3734 1.13953 16.373 1.13854L16.3731 1.13853L16.3723 1.13658C16.3011 0.95158 16.1153 0.839986 15.9182 0.865662C15.7217 0.891277 15.5707 1.04514 15.5451 1.23836L15.545 1.23961C15.5267 1.39774 15.4056 1.58664 15.2314 1.77377C15.0673 1.95003 14.8665 2.11387 14.6937 2.2338C12.4879 1.98022 10.7973 2.36219 9.68217 3.3903L9.68215 3.39032C8.64507 4.34731 8.42118 5.58301 8.37616 6.17214C5.70476 7.01996 5.1982 9.23728 5.10292 10.0871C3.11007 10.6655 1.9443 12.0611 1.27651 13.3169C0.610979 14.5685 0.436814 15.6868 0.42914 15.736L0.428946 15.7373L0.428919 15.7373L0.428657 15.7393C0.403006 15.9358 0.514162 16.1234 0.696149 16.1973Z" fill="#0A007B" stroke="black" stroke-width="0.15"/>
<path d="M7.00153 13.7919L7.00148 13.792C6.77205 14.1883 6.37042 14.5454 5.84166 14.8238C5.34732 15.085 4.90639 15.1977 4.53092 15.1977C3.95554 15.1977 3.53819 14.9316 3.33641 14.5504C3.3364 14.5504 3.3364 14.5504 3.33639 14.5504L3.38942 14.5223L7.00153 13.7919ZM7.00153 13.7919C7.24518 13.3693 7.27588 12.9257 7.07798 12.5502L7.07786 12.55M7.00153 13.7919L7.07786 12.55M7.07786 12.55C6.87809 12.1747 6.49594 11.9494 6.00686 11.9105L7.07786 12.55ZM3.94349 14.2288L3.94347 14.2288C3.84082 14.0353 3.86767 13.8034 4.01912 13.564C4.17088 13.3241 4.44465 13.0834 4.81893 12.8853L4.81895 12.8853C5.18972 12.6889 5.55301 12.5874 5.85514 12.5874C5.88878 12.5874 5.92087 12.5891 5.95473 12.591C6.14199 12.6058 6.36734 12.6691 6.4726 12.8696L6.4728 12.8699C6.57777 13.0666 6.50176 13.2877 6.4079 13.4496L6.4598 13.4797L6.40795 13.4495C6.24778 13.7246 5.93593 14.0001 5.52204 14.2189C5.14135 14.4193 4.7915 14.5153 4.5138 14.5129C4.23672 14.5104 4.03999 14.411 3.94349 14.2288Z" fill="#0A007B" stroke="black" stroke-width="0.12"/>
<path d="M7.60879 10.8718L7.65232 10.8305C7.50113 10.6711 7.46452 10.4403 7.54571 10.1694C7.62709 9.89787 7.82565 9.59311 8.13229 9.30248L8.13233 9.30244C8.47 8.98174 8.8311 8.77489 9.14581 8.71375C9.20409 8.70283 9.26784 8.69411 9.33423 8.69411C9.47512 8.69411 9.61682 8.73096 9.72219 8.84114C9.87651 9.00362 9.86272 9.23513 9.81669 9.41729C9.73755 9.7263 9.51032 10.0745 9.1706 10.3953L9.17052 10.3954C8.73902 10.8043 8.39885 10.9319 8.19482 10.9709C8.02891 11.0015 7.81021 10.9966 7.65227 10.8305L7.60879 10.8718ZM7.60879 10.8718C7.26785 10.5123 7.46752 9.84988 8.09101 9.25893L9.87485 9.43207C9.79196 9.75578 9.55651 10.1134 9.21179 10.4389C8.7729 10.8549 8.42254 10.9885 8.20591 11.0299C8.03262 11.0619 7.78774 11.06 7.60879 10.8718ZM9.64285 10.891L9.64295 10.8909C10.0762 10.4809 10.3664 10.0311 10.4811 9.58632L10.4811 9.58619C10.6019 9.1131 10.5136 8.67842 10.2197 8.36884C9.92597 8.05934 9.4969 7.94736 9.01599 8.03879L9.01583 8.03882C8.56269 8.12626 8.09318 8.39314 7.66174 8.8013L7.66172 8.80133C6.63576 9.77293 6.65842 10.7749 7.1545 11.2969C7.38506 11.5431 7.6932 11.6695 8.03827 11.6695C8.13005 11.6695 8.22436 11.6618 8.32095 11.6421C8.75403 11.562 9.21029 11.2984 9.64285 10.891Z" fill="#0A007B" stroke="black" stroke-width="0.12"/>
<path d="M14.0167 4.02422L14.0167 4.0242C13.7295 3.70335 13.3165 3.58521 12.8623 3.65175C12.4094 3.7181 11.9134 3.96773 11.4475 4.38456C11.0042 4.77974 10.7114 5.22254 10.6022 5.66654L10.6022 5.66654L10.6022 5.66683C10.4928 6.12164 10.5839 6.54913 10.8663 6.8651L10.8665 6.86529C11.0835 7.10605 11.4013 7.25587 11.7851 7.25587C12.2429 7.25587 12.7896 7.04211 13.3659 6.52735C13.8317 6.1115 14.1359 5.64791 14.2537 5.20702C14.3717 4.76489 14.3022 4.34337 14.0167 4.02422ZM11.2689 5.82673L11.2689 5.82646C11.3185 5.6177 11.4695 5.28181 11.9041 4.89377L11.9041 4.89377C12.324 4.5188 12.7681 4.32183 13.0999 4.32183C13.2737 4.32183 13.4121 4.37587 13.5055 4.47887C13.6408 4.63056 13.6607 4.86152 13.5579 5.13866C13.4553 5.41499 13.2338 5.72531 12.9092 6.0163C12.5879 6.30293 12.2712 6.48092 12.0007 6.54563C11.7308 6.61018 11.5155 6.56098 11.3777 6.40685L11.3774 6.40654C11.2168 6.22936 11.2271 5.99893 11.2689 5.82673Z" fill="#0A007B" stroke="black" stroke-width="0.12"/>
<path d="M5.15534 4.42035L5.15535 4.42035C5.36609 4.45384 5.57018 4.47068 5.76519 4.47068C6.77002 4.47068 7.53767 4.0261 7.66169 3.25486C7.73584 2.79521 7.55695 2.369 7.19784 2.03475C6.83993 1.70161 6.30217 1.45799 5.64759 1.35278L5.64754 1.35277C4.16676 1.11577 3.32888 1.79082 3.2047 2.56055C3.14315 2.94205 3.25711 3.35032 3.57565 3.69142C3.89347 4.03175 4.41147 4.30205 5.15534 4.42035ZM5.5107 2.19956L5.51078 2.19957C5.98536 2.27571 6.32868 2.43052 6.54398 2.60594C6.7609 2.78267 6.83886 2.97122 6.81432 3.1202L6.81424 3.1207C6.7866 3.29593 6.62929 3.44452 6.35237 3.53355C6.07825 3.62167 5.70513 3.64394 5.28969 3.57824C4.87202 3.51002 4.54153 3.38144 4.32622 3.22156C4.11107 3.06179 4.02048 2.87962 4.04975 2.6973L3.9757 2.68541L4.04973 2.69745C4.07576 2.53743 4.17971 2.40558 4.35443 2.31154C4.5304 2.21683 4.77497 2.16288 5.06823 2.16288C5.20539 2.16288 5.35444 2.1743 5.5107 2.19956Z" fill="#0A007B" stroke="black" stroke-width="0.15"/>
<path d="M2.26055 4.80146L2.26021 4.8014C2.23579 4.79734 2.21166 4.79536 2.19011 4.79536C2.05957 4.79536 1.92769 4.85893 1.79839 5.00119C1.66359 5.15114 1.4758 5.45471 1.38119 6.04027L2.26055 4.80146ZM2.26055 4.80146C2.47105 4.83551 2.59697 5.00269 2.66615 5.14985L2.6663 5.15016M2.26055 4.80146L2.6663 5.15016M2.6663 5.15016C2.794 5.41854 2.83049 5.81096 2.75885 6.26123M2.6663 5.15016L2.75885 6.26123M2.75885 6.26123L2.83292 6.27301M2.75885 6.26123L2.83292 6.27301M2.83292 6.27301L2.75887 6.2611C2.68484 6.72103 2.52629 7.10076 2.31795 7.3333M2.83292 6.27301L2.31795 7.3333M2.83292 6.27301C2.75757 6.74116 2.5951 7.13638 2.37377 7.38339M2.83292 6.27301L2.37377 7.38339M2.31795 7.3333L2.37377 7.38339M2.31795 7.3333C2.31794 7.33331 2.31793 7.33333 2.31791 7.33334L2.37377 7.38339M2.31795 7.3333C2.1982 7.46675 2.02937 7.59446 1.83711 7.56342L1.82515 7.63746M2.31795 7.3333L1.82515 7.63746M2.37377 7.38339C2.25133 7.51984 2.05826 7.6751 1.82515 7.63746M2.37377 7.38339L1.82515 7.63746M1.82515 7.63746L1.83723 7.56344C1.64708 7.53242 1.52726 7.36109 1.45872 7.19913C1.33874 6.91039 1.30722 6.4999 1.38118 6.04031L1.82515 7.63746ZM1.7027 8.40787L1.70309 8.40793L1.22002 4.4757L1.16434 4.42546C1.16434 4.42547 1.16434 4.42547 1.16434 4.42547C0.850279 4.77357 0.636522 5.28507 0.536162 5.90102C0.435664 6.51782 0.482382 7.08336 0.672978 7.53026C0.878904 8.01999 1.24406 8.33485 1.7027 8.40787Z" fill="#0A007B" stroke="black" stroke-width="0.15"/>
</svg>
