<svg width="17" height="17" viewBox="0 0 17 17" fill="none" xmlns="http://www.w3.org/2000/svg">
<path id="Vector" fill-rule="evenodd" clip-rule="evenodd" d="M15.9352 0.953712C16.5132 1.33171 16.6752 2.10571 16.2972 2.68371L7.79716 15.6837C7.69813 15.8352 7.56738 15.9633 7.41396 16.0593C7.26054 16.1553 7.08811 16.2168 6.90858 16.2397C6.72905 16.2625 6.54671 16.2461 6.37416 16.1915C6.2016 16.137 6.04295 16.0456 5.90916 15.9237L0.409164 10.9237C0.163839 10.7007 0.0171663 10.3893 0.00141322 10.0581C-0.0143398 9.72692 0.102117 9.40304 0.325164 9.15771C0.548211 8.91239 0.859577 8.76572 1.19077 8.74996C1.52196 8.73421 1.84584 8.85067 2.09116 9.07371L6.50716 13.0877L14.2052 1.31571C14.3866 1.03834 14.6708 0.844388 14.9952 0.776503C15.3196 0.708619 15.6577 0.772361 15.9352 0.953712Z" fill="#0A007B"/>
</svg>
